<svg width="16" height="16" viewBox="0 0 16 16" fill="none" xmlns="http://www.w3.org/2000/svg">
<path d="M14.2406 0.585938C13.85 0.195375 13.3375 0 12.8281 0C12.3162 0 11.8044 0.195312 11.4137 0.585938L1.40968 10.5906C1.14193 10.8583 0.95562 11.1966 0.872807 11.5659L0.00999434 15.4034C-0.0531307 15.6906 0.192463 16 0.498432 16C0.531151 16 0.564557 15.9968 0.598369 15.99C0.598369 15.99 3.24243 15.4291 4.43587 15.1484C4.7965 15.0635 5.11931 14.8821 5.38118 14.6203L15.4187 4.58281C16.1996 3.80187 16.1968 2.53843 15.4159 1.75749L14.2406 0.585938ZM4.31875 13.5594C4.25265 13.6255 4.17803 13.6676 4.09037 13.6882C3.52256 13.822 2.60724 14.0229 1.81881 14.1938L2.33599 11.8945C2.35681 11.802 2.40318 11.7178 2.47024 11.6506L10.0296 4.09125L11.9087 5.97031L4.31875 13.5594Z" fill="#1F2937"/>
</svg>
